# xmcd CD database file
#
# Track frame offsets:
#	150
#	15102
#	24491
#	38192
#	52901
#	64951
#	79583
#	99641
#	117696
#	134914
#	151234
#	166471
#
# Disc length: 2401 seconds
#
# Revision: 0
# Processed by: cddbd v1.5.2PL0 Copyright (c) Steve Scherf et al.
# Submitted via: CDex 1.51
#
DISCID=99095f0c
DTITLE=Get Up And Dance wkshop nr 57 - Get Up And Dance wkshop nr.57
DYEAR=2007
DGENRE=Country
TTITLE0=My Women's Eyes
TTITLE1=Big Love
TTITLE2=Back And I'm Blue
TTITLE3=Getting Ready
TTITLE4=Years From Now
TTITLE5=Toot Toot
TTITLE6=Ride The River
TTITLE7=Don't You Wish
TTITLE8=Shooting Doubles
TTITLE9=Show Mw Wot U Got
TTITLE10=Want 2
TTITLE11=Bad Reputation
EXTD=YEAR: 2007
EXTT0=
EXTT1=
EXTT2=
EXTT3=
EXTT4=
EXTT5=
EXTT6=
EXTT7=
EXTT8=
EXTT9=
EXTT10=
EXTT11=
PLAYORDER=
